<?xml version="1.0" encoding="utf-8"?>
<!-- Generator: Adobe Illustrator 16.0.3, SVG Export Plug-In . SVG Version: 6.00 Build 0)  -->
<!DOCTYPE svg PUBLIC "-//W3C//DTD SVG 1.1//EN" "http://www.w3.org/Graphics/SVG/1.1/DTD/svg11.dtd">
<svg version="1.1" id="Capa_1" xmlns="http://www.w3.org/2000/svg" xmlns:xlink="http://www.w3.org/1999/xlink" x="0px" y="0px"
	 width="191px" height="94.759px" viewBox="126.759 0 191 94.759" enable-background="new 126.759 0 191 94.759"
	 xml:space="preserve">
<g>
	<path d="M145.898,13.806h11.348l-0.404,3.311h-3.874l-2.088,15.278h-3.465l2.088-15.278h-4.034L145.898,13.806z"/>
	<path d="M158.964,13.806h9.996l-0.429,3.298h-6.486l-0.532,3.841h6.52l-0.424,3.273h-6.55l-0.685,4.929h6.594l-0.422,3.248h-10.122
		L158.964,13.806z"/>
	<path d="M178.962,13.806h2.944l4.632,18.589h-3.387l-0.986-3.956h-7.375l-2.114,3.956h-3.754L178.962,13.806z M181.308,25.155
		l-1.486-6.123l-3.273,6.123H181.308z"/>
	<path d="M193.103,13.806h3.165l3.153,12.953l6.426-12.953h3.008l0.253,18.589h-3.261l-0.151-11.121l-5.518,11.121h-2.664
		l-2.832-11.676l-2.967,11.676h-3.336L193.103,13.806z"/>
	<path d="M213.328,13.806h3.187l1.078,12.043l5.683-12.043h2.63l2.214,11.727l4.138-11.727h3.375l-6.58,18.589h-2.854l-2.338-12.308
		l-5.808,12.308h-3.041L213.328,13.806z"/>
	<path d="M246.892,13.339c2.553,0,4.658,0.822,6.318,2.464c1.659,1.643,2.489,3.728,2.489,6.255c0,1.938-0.491,3.764-1.473,5.478
		s-2.287,3.031-3.917,3.949c-1.63,0.918-3.503,1.377-5.617,1.377c-2.646,0-4.758-0.784-6.337-2.351
		c-1.58-1.567-2.37-3.631-2.37-6.192c0-2.906,0.943-5.404,2.831-7.494C240.922,14.501,243.615,13.339,246.892,13.339z
		 M246.765,16.637c-1.331,0-2.546,0.322-3.646,0.967s-1.986,1.571-2.66,2.78s-1.011,2.458-1.011,3.747
		c0,1.525,0.468,2.818,1.402,3.88c0.936,1.061,2.279,1.592,4.031,1.592c2.03,0,3.755-0.716,5.175-2.148s2.13-3.172,2.13-5.219
		c0-1.693-0.5-3.049-1.498-4.069S248.383,16.637,246.765,16.637z"/>
	<path d="M260.299,13.806h3.229c1.993,0,3.396,0.173,4.208,0.518c1.013,0.429,1.777,1.025,2.292,1.787
		c0.516,0.762,0.772,1.665,0.772,2.709c0,1.289-0.382,2.394-1.147,3.315c-0.765,0.922-1.921,1.564-3.468,1.926l4.047,8.333h-3.614
		l-3.968-8.113h-0.286l-1.115,8.113h-3.489L260.299,13.806z M262.782,21.237c1.889-0.008,3.118-0.204,3.688-0.588
		c0.57-0.383,0.855-0.958,0.855-1.725c0-0.438-0.114-0.805-0.343-1.1s-0.56-0.501-0.991-0.619c-0.433-0.118-1.31-0.177-2.631-0.177
		L262.782,21.237z"/>
	<path d="M275.173,13.806h3.502l-0.867,6.254l5.93-6.254h4.331l-8.102,8.495l6.4,10.094h-3.904l-5.224-8.239l-1.143,8.239h-3.464
		L275.173,13.806z"/>
</g>
<g>
	<path d="M146.253,40.143h2.12c1.183,0,1.983,0.049,2.403,0.145c0.632,0.145,1.146,0.456,1.542,0.932
		c0.396,0.476,0.594,1.062,0.594,1.757c0,0.58-0.137,1.089-0.409,1.529c-0.272,0.439-0.662,0.771-1.169,0.996
		c-0.507,0.225-1.206,0.34-2.1,0.344l3.829,4.944h-1.316l-3.829-4.944h-0.602v4.944h-1.063V40.143z M147.317,41.186v3.619
		l1.834,0.015c0.711,0,1.236-0.068,1.577-0.203c0.341-0.135,0.606-0.351,0.798-0.648c0.19-0.297,0.286-0.628,0.286-0.996
		c0-0.357-0.097-0.681-0.29-0.973s-0.447-0.5-0.761-0.626c-0.314-0.125-0.837-0.188-1.566-0.188H147.317z"/>
	<path d="M155.199,40.143h6.102v1.042h-5.038v3.337h4.995v1.042h-4.995v4.184h4.995v1.042h-6.059V40.143z"/>
	<path d="M163.139,50.791V40.143h2.208c1.593,0,2.748,0.128,3.467,0.384c1.033,0.362,1.84,0.989,2.422,1.882
		c0.581,0.893,0.872,1.957,0.872,3.192c0,1.067-0.23,2.005-0.691,2.816s-1.06,1.409-1.795,1.795
		c-0.736,0.386-1.768,0.579-3.095,0.579H163.139z M164.16,49.785h1.23c1.472,0,2.492-0.092,3.062-0.275
		c0.801-0.261,1.431-0.729,1.889-1.407c0.459-0.677,0.688-1.505,0.688-2.484c0-1.027-0.248-1.904-0.745-2.632
		s-1.189-1.227-2.077-1.497c-0.666-0.202-1.764-0.304-3.294-0.304h-0.752V49.785z"/>
	<path d="M188.191,42.119l-0.84,0.645c-0.463-0.604-1.02-1.061-1.669-1.372c-0.648-0.312-1.361-0.467-2.139-0.467
		c-0.849,0-1.636,0.204-2.359,0.612s-1.285,0.956-1.683,1.643c-0.398,0.688-0.598,1.461-0.598,2.32c0,1.298,0.445,2.381,1.336,3.25
		c0.89,0.869,2.013,1.303,3.369,1.303c1.491,0,2.738-0.584,3.742-1.751l0.84,0.637c-0.531,0.676-1.193,1.198-1.987,1.567
		s-1.681,0.554-2.66,0.554c-1.862,0-3.332-0.62-4.408-1.86c-0.902-1.047-1.354-2.312-1.354-3.793c0-1.559,0.547-2.87,1.64-3.934
		s2.462-1.596,4.107-1.596c0.994,0,1.892,0.197,2.693,0.59C187.023,40.859,187.679,41.41,188.191,42.119z"/>
	<path d="M195.396,39.876c1.612,0,2.962,0.538,4.049,1.614c1.086,1.076,1.629,2.4,1.629,3.974c0,1.559-0.542,2.881-1.626,3.966
		c-1.084,1.086-2.405,1.628-3.965,1.628c-1.579,0-2.912-0.54-3.998-1.621c-1.087-1.081-1.63-2.389-1.63-3.923
		c0-1.023,0.248-1.971,0.742-2.845c0.495-0.874,1.17-1.557,2.024-2.052C193.476,40.123,194.401,39.876,195.396,39.876z
		 M195.443,40.911c-0.788,0-1.534,0.205-2.24,0.616c-0.705,0.411-1.257,0.963-1.653,1.659c-0.396,0.695-0.594,1.471-0.594,2.325
		c0,1.266,0.438,2.334,1.315,3.206s1.935,1.308,3.172,1.308c0.826,0,1.592-0.201,2.295-0.602c0.703-0.4,1.251-0.949,1.646-1.644
		c0.394-0.695,0.591-1.468,0.591-2.318c0-0.845-0.197-1.609-0.591-2.292c-0.395-0.683-0.948-1.23-1.664-1.641
		C197.004,41.116,196.245,40.911,195.443,40.911z"/>
	<path d="M203.209,40.143h1.063v9.62h4.098v1.028h-5.161V40.143z"/>
	<path d="M214.406,40.143l4.966,10.647h-1.149l-1.675-3.503h-4.587l-1.658,3.503h-1.188l5.031-10.647H214.406z M214.273,42.406
		l-1.824,3.854h3.64L214.273,42.406z"/>
	<path d="M221.051,40.143h2.1c0.844,0,1.493,0.101,1.946,0.301c0.454,0.2,0.813,0.508,1.075,0.923s0.395,0.875,0.395,1.382
		c0,0.473-0.115,0.904-0.346,1.292c-0.23,0.389-0.569,0.703-1.016,0.944c0.553,0.188,0.979,0.409,1.277,0.663
		c0.298,0.253,0.53,0.56,0.696,0.919c0.166,0.36,0.249,0.75,0.249,1.169c0,0.854-0.313,1.577-0.938,2.168
		c-0.625,0.591-1.463,0.887-2.516,0.887h-2.924V40.143z M222.093,41.186v3.409h0.609c0.74,0,1.284-0.069,1.633-0.206
		c0.348-0.138,0.623-0.355,0.826-0.652c0.203-0.296,0.305-0.626,0.305-0.988c0-0.487-0.17-0.87-0.511-1.147
		c-0.341-0.277-0.884-0.416-1.629-0.416H222.093z M222.093,45.666v4.082h1.32c0.778,0,1.349-0.076,1.711-0.228
		c0.362-0.152,0.653-0.389,0.874-0.713c0.22-0.323,0.329-0.673,0.329-1.049c0-0.473-0.154-0.885-0.464-1.238
		c-0.309-0.352-0.733-0.593-1.274-0.724c-0.363-0.087-0.994-0.13-1.894-0.13H222.093z"/>
	<path d="M234.605,39.876c1.612,0,2.962,0.538,4.049,1.614c1.086,1.076,1.629,2.4,1.629,3.974c0,1.559-0.542,2.881-1.626,3.966
		c-1.084,1.086-2.405,1.628-3.965,1.628c-1.579,0-2.912-0.54-3.998-1.621c-1.087-1.081-1.63-2.389-1.63-3.923
		c0-1.023,0.248-1.971,0.742-2.845c0.495-0.874,1.17-1.557,2.024-2.052C232.685,40.123,233.61,39.876,234.605,39.876z
		 M234.652,40.911c-0.788,0-1.534,0.205-2.24,0.616c-0.705,0.411-1.257,0.963-1.653,1.659c-0.396,0.695-0.594,1.471-0.594,2.325
		c0,1.266,0.438,2.334,1.315,3.206s1.935,1.308,3.172,1.308c0.826,0,1.592-0.201,2.295-0.602c0.703-0.4,1.251-0.949,1.646-1.644
		c0.394-0.695,0.591-1.468,0.591-2.318c0-0.845-0.197-1.609-0.591-2.292c-0.395-0.683-0.948-1.23-1.664-1.641
		C236.213,41.116,235.454,40.911,234.652,40.911z"/>
	<path d="M242.476,40.143h2.121c1.182,0,1.983,0.049,2.403,0.145c0.632,0.145,1.146,0.456,1.541,0.932
		c0.396,0.476,0.594,1.062,0.594,1.757c0,0.58-0.137,1.089-0.409,1.529c-0.272,0.439-0.662,0.771-1.169,0.996
		c-0.506,0.225-1.206,0.34-2.099,0.344l3.829,4.944h-1.316l-3.829-4.944h-0.602v4.944h-1.064V40.143z M243.54,41.186v3.619
		l1.834,0.015c0.711,0,1.236-0.068,1.577-0.203c0.341-0.135,0.606-0.351,0.797-0.648c0.191-0.297,0.287-0.628,0.287-0.996
		c0-0.357-0.097-0.681-0.29-0.973s-0.447-0.5-0.762-0.626c-0.314-0.125-0.836-0.188-1.565-0.188H243.54z"/>
	<path d="M255.765,40.143l4.966,10.647h-1.149l-1.675-3.503h-4.587l-1.658,3.503h-1.188l5.031-10.647H255.765z M255.631,42.406
		l-1.824,3.854h3.64L255.631,42.406z"/>
	<path d="M261.323,41.186v-1.042h5.834v1.042h-2.374v9.605h-1.086v-9.605H261.323z"/>
	<path d="M268.54,40.143h1.063v10.647h-1.063V40.143z"/>
	<path d="M271.233,40.143h1.158l3.529,8.226l3.586-8.226h1.158l-4.633,10.647H275.8L271.233,40.143z"/>
	<path d="M286.802,40.143l4.965,10.647h-1.148l-1.675-3.503h-4.587l-1.659,3.503h-1.187l5.03-10.647H286.802z M286.667,42.406
		l-1.824,3.854h3.641L286.667,42.406z"/>
</g>
<g>
	<g>
		<g>
			<polygon points="143.113,82.123 142.39,80.569 181.299,63.669 208.845,80.032 248.376,58.27 272.687,68.053 301.12,48.797 
				302.128,50.196 272.911,69.979 248.507,60.161 208.822,82.008 181.183,65.587 			"/>
		</g>
	</g>
</g>
<g>
	<g>
		<ellipse transform="matrix(0.9928 0.1201 -0.1201 0.9928 11.2419 -24.4938)" cx="208.832" cy="81.021" rx="4.672" ry="4.535"/>
	</g>
</g>
<g>
	<g>
		<path d="M208.185,86.368c-3.035-0.367-5.216-3.064-4.859-6.015c0.357-2.948,3.118-5.048,6.155-4.68
			c3.036,0.367,5.216,3.064,4.859,6.013C213.984,84.635,211.224,86.735,208.185,86.368z M209.277,77.361
			c-2.079-0.251-3.968,1.187-4.212,3.204s1.249,3.862,3.326,4.114c2.077,0.251,3.967-1.187,4.21-3.203
			C212.845,79.458,211.353,77.612,209.277,77.361z"/>
	</g>
</g>
<g>
	<g>
		<ellipse transform="matrix(0.9928 0.1201 -0.1201 0.9928 8.9411 -29.3942)" cx="248.338" cy="59.483" rx="4.672" ry="4.535"/>
	</g>
</g>
<g>
	<g>
		<path d="M247.691,64.83c-3.037-0.367-5.217-3.064-4.86-6.013c0.357-2.949,3.118-5.049,6.153-4.681
			c3.038,0.366,5.219,3.065,4.861,6.014C253.488,63.097,250.728,65.198,247.691,64.83z M248.781,55.824
			c-2.078-0.251-3.966,1.187-4.211,3.203c-0.244,2.019,1.248,3.863,3.326,4.114c2.076,0.252,3.966-1.185,4.211-3.201
			C252.35,57.922,250.859,56.076,248.781,55.824z"/>
	</g>
</g>
<g>
	<g>
		<ellipse transform="matrix(0.9927 0.1202 -0.1202 0.9927 10.2479 -32.272)" cx="272.608" cy="68.802" rx="4.671" ry="4.536"/>
	</g>
</g>
<g>
	<g>
		<path d="M271.96,74.149c-3.037-0.367-5.217-3.064-4.86-6.013c0.358-2.948,3.118-5.049,6.155-4.681
			c3.035,0.367,5.216,3.064,4.859,6.014C277.758,72.418,274.997,74.518,271.96,74.149z M273.049,65.143
			c-2.076-0.252-3.966,1.187-4.21,3.203c-0.242,2.018,1.248,3.863,3.325,4.115c2.077,0.25,3.968-1.187,4.211-3.203
			C276.619,67.241,275.128,65.395,273.049,65.143z"/>
	</g>
</g>
<g>
	<g>
		<ellipse transform="matrix(0.9928 0.1201 -0.1201 0.9928 9.1199 -21.2784)" cx="181.077" cy="65.016" rx="4.671" ry="4.535"/>
	</g>
</g>
<g>
	<g>
		<path d="M180.43,70.363c-3.037-0.368-5.216-3.065-4.86-6.013c0.357-2.95,3.117-5.049,6.154-4.683
			c3.036,0.368,5.216,3.065,4.859,6.014C186.228,68.631,183.466,70.729,180.43,70.363z M181.52,61.356
			c-2.077-0.251-3.968,1.186-4.211,3.203s1.249,3.863,3.325,4.114c2.076,0.252,3.966-1.185,4.211-3.202
			C185.089,63.455,183.597,61.608,181.52,61.356z"/>
	</g>
</g>
</svg>
